<?xml version="1.0" encoding="UTF-8"?>
<svg version="1.1" xmlns="http://www.w3.org/2000/svg" width="64" height="64">
<path d="M0 0 C3.1796875 0.609375 3.1796875 0.609375 4.69433594 2.35986328 C6.26923606 4.84920476 7.67784165 7.38034046 9.0546875 9.984375 C9.55226563 10.87382812 10.04984375 11.76328125 10.5625 12.6796875 C14.1796875 19.23832418 14.1796875 19.23832418 14.1796875 21.609375 C17.4796875 20.619375 20.7796875 19.629375 24.1796875 18.609375 C23.1896875 17.289375 22.1996875 15.969375 21.1796875 14.609375 C20.9921875 11.859375 20.9921875 11.859375 21.1796875 9.609375 C25.9840083 7.2072146 30.91072645 6.99815271 36.1796875 6.609375 C37.36074813 8.16102353 38.52404203 9.72620606 39.6796875 11.296875 C40.65421875 12.60205078 40.65421875 12.60205078 41.6484375 13.93359375 C43.29952356 16.8187824 43.50866827 18.34894055 43.1796875 21.609375 C41.1996875 22.599375 39.2196875 23.589375 37.1796875 24.609375 C37.8396875 25.49625 38.4996875 26.383125 39.1796875 27.296875 C41.16828817 30.59049486 41.61703824 31.89189373 41.1796875 35.609375 C23.42040269 42.64607275 23.42040269 42.64607275 17.1796875 41.609375 C14.64352228 38.52856692 13.07973399 35.14434521 11.1796875 31.609375 C4.7446875 32.104375 4.7446875 32.104375 -1.8203125 32.609375 C-2.50738281 31.29582031 -3.19445313 29.98226562 -3.90234375 28.62890625 C-4.81242271 26.89318864 -5.72258325 25.1575138 -6.6328125 23.421875 C-7.08462891 22.55755859 -7.53644531 21.69324219 -8.00195312 20.80273438 C-9.80508109 17.36757818 -11.59483981 13.97479626 -13.6328125 10.671875 C-15.07554047 8.16608431 -15.06416712 6.45434557 -14.8203125 3.609375 C-9.8878518 1.84778189 -5.07745681 1.09706823 0 0 Z M-5.8203125 9.609375 C-3.1803125 14.559375 -0.5403125 19.509375 2.1796875 24.609375 C3.8296875 24.279375 5.4796875 23.949375 7.1796875 23.609375 C4.5396875 18.329375 1.8996875 13.049375 -0.8203125 7.609375 C-2.41659729 7.5348394 -2.41659729 7.5348394 -5.8203125 9.609375 Z M31.1796875 14.609375 C31.5096875 15.599375 31.8396875 16.589375 32.1796875 17.609375 C32.1796875 16.619375 32.1796875 15.629375 32.1796875 14.609375 C31.8496875 14.609375 31.5196875 14.609375 31.1796875 14.609375 Z M22.9921875 26.546875 C21.7340625 26.8975 20.4759375 27.248125 19.1796875 27.609375 C19.5096875 29.259375 19.8396875 30.909375 20.1796875 32.609375 C24.18169128 34.21017651 27.22524986 32.90217192 31.1796875 31.609375 C30.8496875 29.959375 30.5196875 28.309375 30.1796875 26.609375 C26.96250858 25.53698203 26.12685138 25.67328015 22.9921875 26.546875 Z " fill="#FC3B4E" transform="translate(17.8203125,11.390625)"/>
<path d="M0 0 C0.33 1.32 0.66 2.64 1 4 C-2.68020623 5.62778353 -6.08771504 7.05749499 -10 8 C-9.69707031 8.58491211 -9.39414063 9.16982422 -9.08203125 9.77246094 C-7.71295888 12.4274082 -6.35638602 15.08855067 -5 17.75 C-4.52304687 18.67039062 -4.04609375 19.59078125 -3.5546875 20.5390625 C-3.10351562 21.42851563 -2.65234375 22.31796875 -2.1875 23.234375 C-1.76855469 24.05131836 -1.34960938 24.86826172 -0.91796875 25.70996094 C0 28 0 28 0 32 C-1.65 32 -3.3 32 -5 32 C-5.28721924 31.45061768 -5.57443848 30.90123535 -5.87036133 30.33520508 C-7.18286397 27.82682556 -8.49766066 25.3196554 -9.8125 22.8125 C-10.26431641 21.94818359 -10.71613281 21.08386719 -11.18164062 20.19335938 C-12.98476859 16.75820318 -14.77452731 13.36542126 -16.8125 10.0625 C-18.25522797 7.55670931 -18.24385462 5.84497057 -18 3 C-11.91366593 0.82630926 -6.46545831 -0.15393948 0 0 Z " fill="#FD707D" transform="translate(21,12)"/>
<path d="M0 0 C1.30710937 -0.00257812 2.61421875 -0.00515625 3.9609375 -0.0078125 C4.63479492 -0.00362305 5.30865234 0.00056641 6.00292969 0.00488281 C8.05694103 0.01559601 10.11007796 0.00495737 12.1640625 -0.0078125 C13.47117187 -0.00523438 14.77828125 -0.00265625 16.125 0 C17.31222656 0.00225586 18.49945313 0.00451172 19.72265625 0.00683594 C23.13614755 0.27133161 25.87632082 1.04474127 29.0625 2.265625 C29.0625 2.925625 29.0625 3.585625 29.0625 4.265625 C24.60192112 5.97483464 20.89205136 6.52219208 16.125 6.53125 C14.81789063 6.53382812 13.51078125 6.53640625 12.1640625 6.5390625 C11.49020508 6.53487305 10.81634766 6.53068359 10.12207031 6.52636719 C8.06805897 6.51565399 6.01492204 6.52629263 3.9609375 6.5390625 C2.65382813 6.53648438 1.34671875 6.53390625 0 6.53125 C-1.18722656 6.52899414 -2.37445313 6.52673828 -3.59765625 6.52441406 C-7.01114755 6.25991839 -9.75132082 5.48650873 -12.9375 4.265625 C-12.9375 3.605625 -12.9375 2.945625 -12.9375 2.265625 C-8.47692112 0.55641536 -4.76705136 0.00905792 0 0 Z " fill="#000000" transform="translate(23.9375,57.734375)"/>
<path d="M0 0 C0.639375 0.804375 1.27875 1.60875 1.9375 2.4375 C3.40603502 4.2750504 3.40603502 4.2750504 5 6 C5.04063832 7.66617115 5.042721 9.33388095 5 11 C-10.91494361 17.30592105 -10.91494361 17.30592105 -19 17 C-19.33 15.68 -19.66 14.36 -20 13 C-14.14609943 9.78035469 -8.73292338 8 -2 8 C-2.04125 7.05125 -2.0825 6.1025 -2.125 5.125 C-2 2 -2 2 0 0 Z " fill="#DA3142" transform="translate(54,36)"/>
<path d="M0 0 C2.31 0 4.62 0 7 0 C6 3 6 3 4 4 C4.495 4.928125 4.99 5.85625 5.5 6.8125 C7 10 7 10 7 13 C6.01 13 5.02 13 4 13 C3.13372601 11.40233897 2.28233535 9.79660056 1.4375 8.1875 C0.96183594 7.29417969 0.48617188 6.40085937 -0.00390625 5.48046875 C-1 3 -1 3 0 0 Z " fill="#FEEEF0" transform="translate(7,16)"/>
</svg>
