<?xml version="1.0" encoding="UTF-8"?>
<svg version="1.1" xmlns="http://www.w3.org/2000/svg" width="720" height="720">
<path d="M0 0 C0.71865234 0.34417969 1.43730469 0.68835938 2.17773438 1.04296875 C29.17129449 14.02973223 53.96594819 30.69483038 76 51 C76.76183594 51.6703125 77.52367187 52.340625 78.30859375 53.03125 C90.24203703 63.53424769 101.23794027 74.61004193 110.75439453 87.35302734 C111.93159852 88.90955775 113.15024616 90.4344915 114.37109375 91.95703125 C119.92006854 98.90919506 124.87697423 106.18393487 129.75 113.625 C130.37616211 114.57882568 131.00232422 115.53265137 131.64746094 116.51538086 C142.61677517 133.45192039 151.12959489 151.6985808 158.375 170.5 C158.77944336 171.54873291 159.18388672 172.59746582 159.60058594 173.67797852 C162.37952859 181.03083865 164.77642711 188.46181644 167 196 C167.34659668 197.16523193 167.34659668 197.16523193 167.70019531 198.35400391 C179.86078844 240.07674516 182.84406955 285.0779067 176 328 C175.77884919 329.55695254 175.55997819 331.11423118 175.34375 332.671875 C170.31778912 367.3197358 157.9486181 401.4315164 141.08544922 432.02148438 C140.14349522 433.73844236 139.2275526 435.4696215 138.31640625 437.203125 C135.18185623 443.14942586 131.6137154 448.69188998 127.8359375 454.25 C125.71745358 457.42321847 123.82608002 460.65218662 122 464 C121.34 464 120.68 464 120 464 C119.77054688 464.70253906 119.54109375 465.40507813 119.3046875 466.12890625 C117.74803883 469.55446546 115.58327037 472.1387986 113.125 474.9375 C109.77590771 478.78845923 106.80699286 482.73216354 104 487 C102.35697047 488.68997323 100.68528688 490.35216394 99 492 C97.49182226 493.65927023 95.99260043 495.32670333 94.5 497 C86.26394508 506.1827279 77.25613948 514.33740116 67.56640625 521.96484375 C64.8431419 524.12438824 62.1727554 526.34084256 59.5 528.5625 C50.20848447 536.16464907 40.17130747 542.64943955 30 549 C29.37802734 549.39058594 28.75605469 549.78117188 28.11523438 550.18359375 C2.65680835 566.04635154 -25.2746217 578.11353404 -54.37670898 585.34521484 C-56.18168545 585.79574503 -57.98316624 586.26044024 -59.78149414 586.73681641 C-67.80689064 588.83319724 -75.87916452 590.29062622 -84.0625 591.625 C-85.34705078 591.8415625 -86.63160156 592.058125 -87.95507812 592.28125 C-98.74794379 594.06446697 -109.35301703 595.14805432 -120.29296875 595.203125 C-121.23366211 595.21013931 -122.17435547 595.21715363 -123.14355469 595.22438049 C-126.15825257 595.24176653 -129.17275384 595.248232 -132.1875 595.25 C-133.73541733 595.25101212 -133.73541733 595.25101212 -135.31460571 595.25204468 C-149.45191612 595.23735078 -163.27304556 594.99443986 -177.22558594 592.49609375 C-180.30336645 591.94575496 -183.38853687 591.45819345 -186.4765625 590.96875 C-208.98215997 587.25231834 -230.64737071 580.98071479 -251.61938477 572.00854492 C-253.33459014 571.28190013 -255.05747328 570.57328399 -256.78491211 569.8762207 C-264.30585195 566.82569654 -271.50139348 563.32958833 -278.6875 559.5625 C-279.75033203 559.01529297 -280.81316406 558.46808594 -281.90820312 557.90429688 C-288.21310058 554.61766002 -294.17775964 551.07931145 -300 547 C-303.61787493 544.53676601 -307.27790126 542.25622759 -311.0625 540.0625 C-314.9584497 537.74583245 -317.86797913 535.29686408 -321 532 C-322.86381541 530.53310824 -324.77454569 529.1403898 -326.6875 527.73828125 C-330.36124749 524.97676498 -333.89096081 522.04392458 -337.43359375 519.1171875 C-338.95739489 517.86010954 -340.4885799 516.61176185 -342.03515625 515.3828125 C-343.3923731 514.29832244 -344.70347276 513.15636213 -346 512 C-346 511.34 -346 510.68 -346 510 C-346.79857422 509.68869141 -346.79857422 509.68869141 -347.61328125 509.37109375 C-350.96579674 507.4451806 -353.4973012 504.79749615 -356.1875 502.0625 C-357.0535083 501.18851563 -357.0535083 501.18851563 -357.93701172 500.296875 C-362.13437053 496.00722804 -366.01050763 491.53825931 -369.73828125 486.83203125 C-372.7960979 483.00315893 -375.98860603 479.2940235 -379.19580078 475.58984375 C-382.08463642 472.21402991 -384.58054815 468.72261189 -387 465 C-387.62777344 464.1234375 -388.25554687 463.246875 -388.90234375 462.34375 C-393.88785614 455.37742942 -398.38603745 448.18423409 -402.75 440.8125 C-403.29261475 439.89855469 -403.83522949 438.98460937 -404.39428711 438.04296875 C-425.32580575 402.35686665 -437.31041808 362.81286196 -443 322 C-443.19698486 320.65929443 -443.19698486 320.65929443 -443.39794922 319.29150391 C-445.04408455 307.81011398 -445.17290055 296.32846475 -445.1875 284.75 C-445.18867828 284.03783325 -445.18985657 283.3256665 -445.19107056 282.59191895 C-445.18820648 267.32771972 -444.35589246 252.3411113 -441.875 237.25 C-441.76873291 236.59579071 -441.66246582 235.94158142 -441.55297852 235.26754761 C-437.87785132 212.84177833 -433.07832841 189.17122413 -423.1875 168.5859375 C-421.94009817 165.86955588 -420.92644926 163.13255061 -419.9375 160.3125 C-418.28432134 155.65593699 -416.34746405 151.34321745 -414 147 C-413.55785156 146.18144531 -413.11570312 145.36289063 -412.66015625 144.51953125 C-411.65434982 142.6706616 -410.64371207 140.82441417 -409.62890625 138.98046875 C-408.51862883 136.94895395 -407.42282456 134.90947794 -406.33984375 132.86328125 C-392.2451301 106.247068 -373.63183866 81.95701527 -352 61 C-351.21367187 60.20980469 -350.42734375 59.41960937 -349.6171875 58.60546875 C-317.61951843 26.75107282 -277.20994724 1.6360557 -234.20605469 -12.27539062 C-232.18907749 -12.93789487 -230.19152722 -13.6371371 -228.1953125 -14.359375 C-155.4154654 -40.15879564 -69.02530547 -33.33916236 0 0 Z M-264 58 C-265.89088572 59.00932414 -267.78657477 60.00971353 -269.6875 61 C-274.49346349 63.60352341 -278.83839271 66.62819511 -283.20703125 69.90625 C-287.07029285 72.80234541 -291.02908042 75.56167605 -294.98046875 78.3359375 C-295.98013672 79.15964844 -295.98013672 79.15964844 -297 80 C-297 80.66 -297 81.32 -297 82 C-297.680625 82.185625 -298.36125 82.37125 -299.0625 82.5625 C-302.61656408 84.30172285 -304.76530492 86.57896157 -307.44921875 89.44140625 C-309 91 -309 91 -311 92 C-311 92.66 -311 93.32 -311 94 C-311.58394531 94.25910156 -312.16789062 94.51820313 -312.76953125 94.78515625 C-319.79455619 98.61139576 -324.88163055 106.16565714 -329.78515625 112.29296875 C-331.75861462 114.70497343 -333.8090448 116.9759362 -335.9375 119.25 C-340.93500836 124.79613702 -344.85815126 131.05380754 -348.8984375 137.30810547 C-350.27187943 139.41758077 -351.69849963 141.48864756 -353.125 143.5625 C-374.65407197 176.06717729 -388.3929705 215.20346176 -392 254 C-392.11085938 255.03769531 -392.22171875 256.07539063 -392.3359375 257.14453125 C-393.0967519 265.48264587 -393.10198321 273.81980248 -393.125 282.1875 C-393.12967285 283.39510986 -393.1343457 284.60271973 -393.13916016 285.84692383 C-393.13706543 286.98411865 -393.1349707 288.12131348 -393.1328125 289.29296875 C-393.13168457 290.3193042 -393.13055664 291.34563965 -393.12939453 292.40307617 C-393.11081159 295.11527417 -393.11081159 295.11527417 -392 298 C-392.03244548 299.89658577 -392.10126215 301.79259807 -392.1875 303.6875 C-392.40036196 345.11043765 -374.21172598 391.15341949 -351 425 C-350.36239746 425.93875977 -350.36239746 425.93875977 -349.71191406 426.89648438 C-342.99262207 436.75636515 -335.88401131 446.04823282 -328 455 C-327.29488281 455.81597656 -326.58976562 456.63195312 -325.86328125 457.47265625 C-322.10719993 461.90538934 -322.10719993 461.90538934 -318 466 C-317.34 466 -316.68 466 -316 466 C-316 466.66 -316 467.32 -316 468 C-315.34 468 -314.68 468 -314 468 C-313.34 469.32 -312.68 470.64 -312 472 C-311.34 472 -310.68 472 -310 472 C-309.73606445 472.60054199 -309.47212891 473.20108398 -309.20019531 473.81982422 C-307.94216019 476.10506702 -306.81334189 477.25745593 -304.796875 478.8828125 C-304.15347168 479.40520508 -303.51006836 479.92759766 -302.84716797 480.46582031 C-302.15510254 481.01334961 -301.46303711 481.56087891 -300.75 482.125 C-299.67516357 482.98496582 -299.67516357 482.98496582 -298.57861328 483.86230469 C-289.45905275 491.09915621 -280.00368458 497.7736464 -270.25 504.125 C-269.65300293 504.5159082 -269.05600586 504.90681641 -268.44091797 505.30957031 C-265.46030369 507.36343651 -265.46030369 507.36343651 -262 508 C-261.79246094 507.443125 -261.58492187 506.88625 -261.37109375 506.3125 C-256.49075086 494.22395193 -247.21662694 487.36869391 -236.57250977 480.45458984 C-229.12229391 475.60732643 -222.06779756 470.55978115 -216 464 C-216 463.34 -216 462.68 -216 462 C-215.43023437 461.7628125 -214.86046875 461.525625 -214.2734375 461.28125 C-205.73863756 456.47125966 -198.27401814 445.2287744 -195.625 435.875 C-193.74210575 424.20105562 -196.44127002 415.53058829 -202.95703125 405.75 C-205.76507496 401.97014766 -208.85314054 398.51715219 -212.08203125 395.09375 C-214 393 -214 393 -216 390 C-216.66 390 -217.32 390 -218 390 C-218.22945312 389.45214844 -218.45890625 388.90429688 -218.6953125 388.33984375 C-220.37967975 385.31907734 -222.51065681 383.08789265 -224.875 380.5625 C-225.35678711 380.04461914 -225.83857422 379.52673828 -226.33496094 378.99316406 C-227.35985543 377.89171595 -228.38659865 376.79198562 -229.41503906 375.69384766 C-232.03849966 372.89015547 -234.64432171 370.07021027 -237.25 367.25 C-237.76240234 366.69626709 -238.27480469 366.14253418 -238.80273438 365.57202148 C-241.36986299 362.79166095 -243.90513351 359.99203095 -246.375 357.125 C-250.36854542 352.50193018 -254.57364194 348.07418381 -258.76318359 343.62939453 C-261.72452854 340.47823046 -264.63369939 337.29682011 -267.46875 334.03125 C-271.04171611 329.91994636 -274.75456851 325.95394005 -278.5 322 C-284.93431783 315.20748303 -291.15388905 308.30763869 -297 301 C-298.52007842 299.22722741 -298.52007842 299.22722741 -300 298 C-300.66 298 -301.32 298 -302 298 C-302.185625 297.319375 -302.37125 296.63875 -302.5625 295.9375 C-303.95697718 293.08791619 -305.13018687 291.72559617 -307.375 289.5625 C-312.35478763 284.73833074 -315.74680627 280.50529467 -316.125 273.40234375 C-315.67028096 264.66321212 -311.17571419 259.74640444 -305 254.0625 C-302.99431704 252.26553892 -300.9750905 250.4859968 -298.9453125 248.71630859 C-297.12610157 247.11125678 -295.35307044 245.47098919 -293.59375 243.80078125 C-293.06910156 243.30505615 -292.54445313 242.80933105 -292.00390625 242.29858398 C-291.25947266 241.59390991 -291.25947266 241.59390991 -290.5 240.875 C-284.80875568 235.49448454 -279.11936265 231.13998901 -271 231 C-259.72100817 232.93762066 -253.39006428 241.52203337 -246.42919922 249.80712891 C-243.67588569 253.07990266 -240.89232767 256.21217746 -237.8125 259.1875 C-234.88481228 262.01919796 -232.3437307 264.99594825 -229.8125 268.1875 C-226.28536293 272.59185251 -222.52793341 276.56503678 -218.5 280.5 C-214.59473318 284.31574781 -210.95047138 288.14102233 -207.5625 292.4375 C-203.98869296 296.95905697 -200.11016 300.97628384 -196 305 C-191.13731361 309.76576642 -186.71966024 314.6376944 -182.5 319.9921875 C-178.56374296 324.72799675 -174.30209685 329.15411812 -170.05102539 333.60693359 C-169.11504517 334.59040771 -169.11504517 334.59040771 -168.16015625 335.59375 C-167.31916382 336.47063477 -167.31916382 336.47063477 -166.46118164 337.36523438 C-165 339 -165 339 -163 342 C-162.34 342 -161.68 342 -161 342 C-160.77441406 342.54140625 -160.54882812 343.0828125 -160.31640625 343.640625 C-158.93658522 346.11365736 -157.26392489 348.06478601 -155.36987305 350.15893555 C-139.71993469 367.54271742 -130.23609321 390.70392706 -130.6875 414.26171875 C-132.80891143 439.63910297 -142.84930915 464.10049094 -160 483 C-161.52164653 484.68676677 -163.04252218 486.37422938 -164.5625 488.0625 C-165.22378906 488.77535156 -165.88507813 489.48820312 -166.56640625 490.22265625 C-168.20927311 491.87887811 -168.20927311 491.87887811 -168 494 C-168.88836548 494.39723267 -168.88836548 494.39723267 -169.79467773 494.80249023 C-172.07293363 496.03960362 -173.49812535 497.29597577 -175.28515625 499.16015625 C-175.89262695 499.78438477 -176.50009766 500.40861328 -177.12597656 501.05175781 C-177.7650293 501.71530273 -178.40408203 502.37884766 -179.0625 503.0625 C-184.26213557 508.37281964 -189.51053003 513.19739509 -195.34765625 517.796875 C-200.22012821 521.84411239 -204.70471772 526.34746987 -209 531 C-209 531.33 -209 531.66 -209 532 C-163.67232783 545.65426174 -117.11100442 546.14059433 -71 536 C-69.74292236 535.73195557 -69.74292236 535.73195557 -68.46044922 535.45849609 C-29.69565984 527.01940711 9.197665 506.29492307 38 479 C39.34798413 477.80548655 40.70196145 476.61769425 42.0625 475.4375 C42.701875 474.87804687 43.34125 474.31859375 44 473.7421875 C45.41168042 472.51248151 46.82889135 471.28911054 48.25 470.0703125 C53.29561042 465.68949534 57.71446124 461.11667355 62 456 C62.83402344 455.04222656 63.66804688 454.08445312 64.52734375 453.09765625 C74.59920147 441.4919949 83.11556939 429.18071118 91 416 C91.51046875 415.18402344 92.0209375 414.36804688 92.546875 413.52734375 C107.10492491 390.08575263 116.38373774 363.71683196 122.25 336.875 C122.49637207 335.75609375 122.74274414 334.6371875 122.99658203 333.484375 C126.44254428 317.06187626 127.37773527 301.04776078 127.3125 284.3125 C127.31067719 283.34066772 127.30885437 282.36883545 127.30697632 281.36755371 C127.26272044 267.35617027 126.79500764 253.76692736 124 240 C123.59760836 237.8828216 123.19526755 235.76563354 122.79296875 233.6484375 C121.0596738 224.81223744 119.27626405 216.39831066 116 208 C115.52735737 205.65953435 115.24778338 203.3787204 115 201 C113.12283255 204.27522522 112.54437999 207.22878892 111.9375 210.9375 C108.18290985 229.15774461 98.82674207 245.18563462 87.37524414 259.58789062 C85.24392006 262.28008946 83.37642473 264.84410904 82 268 C81.34 268 80.68 268 80 268 C78.46411952 269.5330463 78.46411952 269.5330463 76.87109375 271.52734375 C73.19252127 275.85121304 69.23075538 279.71580723 65.0625 283.5625 C64.06573242 284.49352539 64.06573242 284.49352539 63.04882812 285.44335938 C57.52705075 290.57952281 51.97553038 295.706362 46 300.3125 C45.34 300.869375 44.68 301.42625 44 302 C44 302.66 44 303.32 44 304 C42.68 304.66 41.36 305.32 40 306 C40 306.66 40 307.32 40 308 C39.40646729 308.27602051 38.81293457 308.55204102 38.20141602 308.83642578 C36.11674335 309.93829446 34.55246659 311.07941528 32.77734375 312.6171875 C22.75795945 321.12104578 12.33387841 328.35338483 1 335 C0.27135742 335.42829102 -0.45728516 335.85658203 -1.20800781 336.29785156 C-25.51170059 350.37074155 -53.48139691 357.3306579 -81.16601562 350.08251953 C-101.85884535 344.20065355 -122.68521573 334.43385364 -138 319 C-139.43255771 317.59169974 -140.86519103 316.18347453 -142.29974365 314.77720642 C-144.53600844 312.58183291 -146.76367016 310.37780461 -148.99121094 308.17358398 C-150.15384727 307.0259567 -151.31917183 305.88104575 -152.48730469 304.73901367 C-176.63288105 281.11670547 -198.28914758 247.83176882 -199 213 C-199.05027344 211.91847656 -199.10054687 210.83695313 -199.15234375 209.72265625 C-199.86763796 184.28679414 -189.60938474 158.84769451 -174 139 C-173.30261719 138.113125 -172.60523438 137.22625 -171.88671875 136.3125 C-162.15404155 124.20968898 -151.67413167 112.75121087 -139.86328125 102.64453125 C-137.99548207 100.99601248 -136.24544376 99.27696419 -134.5 97.5 C-131.5924588 94.54692683 -128.5507464 91.82982288 -125.40625 89.1328125 C-123.53220588 87.47172794 -121.7134134 85.7863701 -119.90625 84.0546875 C-96.00572987 61.21496322 -68.65589319 47.97113225 -36 43 C-47.30849911 33.51093763 -66.0370197 31.21585361 -80 28 C-80.72606445 27.82839355 -81.45212891 27.65678711 -82.20019531 27.47998047 C-142.27322113 13.41032536 -211.6717489 26.10805237 -264 58 Z M28 81 C27.731875 82.19625 27.46375 83.3925 27.1875 84.625 C25.54831647 91.93828035 22.03526892 96.3629026 16.5625 101.1875 C15.98951172 101.70763672 15.41652344 102.22777344 14.82617188 102.76367188 C12.47666559 104.88066085 10.15717249 106.88664221 7.58984375 108.73828125 C7.06519531 109.15464844 6.54054688 109.57101563 6 110 C6 110.66 6 111.32 6 112 C5.29875 112.268125 4.5975 112.53625 3.875 112.8125 C0.96931175 113.93722227 0.96931175 113.93722227 -1.6875 115.5625 C-12.6503754 120.31997423 -22.89033353 116.25836464 -33.65234375 112.83984375 C-47.36577213 108.61216804 -58.94397647 108.79674922 -71.9140625 115.5078125 C-78.64383893 119.58359259 -84.28338642 124.63432554 -90 130 C-91.59999963 131.42137128 -93.20400656 132.8382479 -94.8125 134.25 C-97.13258579 136.30643968 -99.36898186 138.36898186 -101.5625 140.5625 C-103.58793968 142.58793968 -105.64407345 144.4466446 -107.8125 146.3125 C-114.55576964 152.17952556 -121.25449573 158.34248175 -126 166 C-126 166.66 -126 167.32 -126 168 C-126.66 168 -127.32 168 -128 168 C-134.6074441 179.53185999 -137.30577865 190.07482756 -135.01953125 203.3203125 C-133.06054258 210.3906854 -129.62985668 216.66010015 -126 223 C-125.42894531 224.01320313 -124.85789062 225.02640625 -124.26953125 226.0703125 C-120.6068667 232.17765338 -116.22570734 237.26124094 -111.34765625 242.43359375 C-109.33722452 244.63135356 -107.59115037 246.82307345 -105.875 249.25 C-103.32644362 252.77932106 -100.3913883 255.38177743 -97.05859375 258.16015625 C-94.89045021 260.09790882 -93.0666806 262.15764375 -91.1875 264.375 C-80.45952004 276.69541449 -64.70503883 288.41669729 -48.14453125 290.48046875 C-26.55734204 291.68973155 -10.99769573 279.14331699 4.25488281 265.5703125 C8.23786582 261.98629645 12.16858111 258.34658259 16.08984375 254.6953125 C20.58421943 250.53273636 25.09745813 246.4269064 30 242.75 C38.77863861 235.48243853 46.18454585 222.83694355 47.37109375 211.43359375 C47.52916684 201.92131315 46.31779029 193.55979586 43.69116211 184.39624023 C41.46939826 176.33717622 41.6233279 169.43320849 45.6875 161.9921875 C48.35914073 157.93701853 51.5849752 153.2075124 56 151 C56 150.34 56 149.68 56 149 C56.57621094 148.74992187 57.15242187 148.49984375 57.74609375 148.2421875 C60.29780419 146.83587222 61.99511136 145.17306725 64.0625 143.125 C68.8709966 138.71721145 73.78707141 136.7651685 80 135 C78.42382099 129.73576816 75.03668089 126.06173649 71.5625 121.9375 C70.94012451 121.19177734 70.31774902 120.44605469 69.67651367 119.67773438 C61.11538884 108.03707466 61.11538884 108.03707466 50 100 C49.30118836 98.68322952 48.63807457 97.34725019 48 96 C45.7294912 93.43354338 43.19396324 91.14692764 40.6875 88.8125 C40.02298828 88.17119141 39.35847656 87.52988281 38.67382812 86.86914062 C38.02220703 86.25876953 37.37058594 85.64839844 36.69921875 85.01953125 C35.81496216 84.18578979 35.81496216 84.18578979 34.9128418 83.33520508 C32.63442867 81.74482328 30.72946246 81.37448237 28 81 Z " fill="#DFBB95" transform="translate(493,77)"/>
<path d="M0 0 C0.99 0.33 1.98 0.66 3 1 C2.47792969 1.29390625 1.95585938 1.5878125 1.41796875 1.890625 C-6.06802867 6.45301922 -11.26389673 12.50026688 -17 19 C-18.94702226 21.09440641 -20.89721144 23.05896441 -23 25 C-23.66 25 -24.32 25 -25 25 C-25.66 26.98 -26.32 28.96 -27 31 C-28 28 -28 28 -26.9609375 25.9140625 C-23.93606384 21.54811185 -21.03813005 17.47727866 -17 14 C-16.34 14 -15.68 14 -15 14 C-15 13.34 -15 12.68 -15 12 C-10.57896404 7.44116552 -5.37084237 3.36994031 0 0 Z " fill="#F3E6D8" transform="translate(564,214)"/>
<path d="M0 0 C0.33 0 0.66 0 1 0 C0.34 15.51 -0.32 31.02 -1 47 C-0.34 47.33 0.32 47.66 1 48 C0.67 52.62 0.34 57.24 0 62 C-0.33 62 -0.66 62 -1 62 C-2.07794832 53.04521415 -2.18620621 44.13608479 -2.18530273 35.13110352 C-2.18748655 32.70245754 -2.20569952 30.2742691 -2.22460938 27.84570312 C-2.25753339 18.36467279 -1.67626462 9.35764038 0 0 Z " fill="#FBF7F2" transform="translate(101,325)"/>
<path d="M0 0 C0.66 0.33 1.32 0.66 2 1 C-3.19494365 7.13284616 -8.72631259 12.84863969 -14.4375 18.5 C-15.26443359 19.32242188 -16.09136719 20.14484375 -16.94335938 20.9921875 C-18.95994959 22.99712113 -20.97885236 24.99966253 -23 27 C-23.66 26.67 -24.32 26.34 -25 26 C-9.56831517 8.92539816 -9.56831517 8.92539816 -4 4 C-3.34 4 -2.68 4 -2 4 C-1.34 2.68 -0.68 1.36 0 0 Z " fill="#ECD8C2" transform="translate(351,180)"/>
<path d="M0 0 C9.2830184 7.63270402 17.51409277 16.04646797 24.9296875 25.4921875 C27.13875094 28.16807189 29.51323175 30.58254933 32 33 C31.67 33.66 31.34 34.32 31 35 C26.19970441 30.29766962 21.53195521 25.55954019 17.16796875 20.44921875 C15.30967589 18.34985006 13.41510559 16.30550693 11.48828125 14.26953125 C10.85494873 13.59937988 10.22161621 12.92922852 9.5690918 12.23876953 C8.28674762 10.88572975 7.0005261 9.5363528 5.71020508 8.19091797 C5.11747803 7.56459473 4.52475098 6.93827148 3.9140625 6.29296875 C3.3773291 5.7311792 2.8405957 5.16938965 2.28759766 4.59057617 C1 3 1 3 0 0 Z " fill="#FCF9F5" transform="translate(287,372)"/>
<path d="M0 0 C3.77869019 2.86953165 6.8298058 6.09707031 9.9921875 9.6171875 C10.58515625 10.266875 11.178125 10.9165625 11.7890625 11.5859375 C13.2374682 13.17451149 14.67813381 14.77013682 16.1171875 16.3671875 C15.7871875 17.0271875 15.4571875 17.6871875 15.1171875 18.3671875 C6.43942368 9.86297896 6.43942368 9.86297896 2.9296875 5.4921875 C-0.26654647 1.73857213 -3.22060371 -0.36311161 -8.2734375 -0.875 C-13.19928439 -1.0077324 -17.28371056 -0.56927647 -21.8828125 1.3671875 C-16.11346396 -5.68423849 -7.11474279 -4.02975947 0 0 Z " fill="#FCFAF7" transform="translate(231.8828125,310.6328125)"/>
<path d="M0 0 C7.66273679 6.35844117 14.79656202 13.1956748 21 21 C20.67 21.66 20.34 22.32 20 23 C15.32775568 18.43697698 10.85825331 13.78449183 6.609375 8.82421875 C5.15463749 7.17528084 3.64946794 5.64510131 2.0625 4.125 C0 2 0 2 0 0 Z " fill="#FBF7F3" transform="translate(266,349)"/>
<path d="M0 0 C5.76044212 0.60636233 10.72014369 2.75658279 16 5 C16 5.33 16 5.66 16 6 C9.73 6 3.46 6 -3 6 C-3 5.67 -3 5.34 -3 5 C-0.69 4.34 1.62 3.68 4 3 C2.68 2.01 1.36 1.02 0 0 Z " fill="#F6EEE4" transform="translate(451,116)"/>
<path d="M0 0 C0.66 0.33 1.32 0.66 2 1 C0.89718873 2.27200971 -0.20730769 3.54255853 -1.3125 4.8125 C-1.92738281 5.52019531 -2.54226562 6.22789062 -3.17578125 6.95703125 C-6.44911047 10.6228796 -6.44911047 10.6228796 -8 12 C-8.66 12 -9.32 12 -10 12 C-8.52278578 8.54798361 -6.56205999 6.35038064 -3.875 3.75 C-3.15054688 3.04359375 -2.42609375 2.3371875 -1.6796875 1.609375 C-1.12539062 1.07828125 -0.57109375 0.5471875 0 0 Z " fill="#EFDDCA" transform="translate(245,564)"/>
<path d="M0 0 C3.80133442 1.67923025 6.97082702 4.11462834 10.25 6.625 C10.80429687 7.04523438 11.35859375 7.46546875 11.9296875 7.8984375 C13.28866663 8.92938719 14.64463835 9.96429911 16 11 C15.01 11.495 15.01 11.495 14 12 C11.99196194 10.67763347 9.99376554 9.34362461 8 8 C7.36578125 7.57976562 6.7315625 7.15953125 6.078125 6.7265625 C5.45421875 6.30117188 4.8303125 5.87578125 4.1875 5.4375 C3.60355469 5.04433594 3.01960938 4.65117187 2.41796875 4.24609375 C1 3 1 3 0 0 Z " fill="#FBF7F3" transform="translate(358,398)"/>
<path d="M0 0 C3.12857014 1.3881735 5.28189174 3.01101878 7.6875 5.4375 C8.28949219 6.03433594 8.89148438 6.63117188 9.51171875 7.24609375 C11 9 11 9 12 12 C8.35865951 10.49917723 6.31243814 8.39379438 3.75 5.4375 C3.04359375 4.63183594 2.3371875 3.82617188 1.609375 2.99609375 C0 1 0 1 0 0 Z " fill="#FBF8F4" transform="translate(390,330)"/>
<path d="M0 0 C2.97 1.98 2.97 1.98 6 4 C5.01 4.495 5.01 4.495 4 5 C3.01 4.67 2.02 4.34 1 4 C1 5.98 1 7.96 1 10 C0.67 10 0.34 10 0 10 C0 6.7 0 3.4 0 0 Z " fill="#FCF9F6" transform="translate(520,154)"/>
<path d="M0 0 C0.99 0.66 1.98 1.32 3 2 C3 2.66 3 3.32 3 4 C0.03 4 -2.94 4 -6 4 C-2 2 -2 2 0 2 C0 1.34 0 0.68 0 0 Z " fill="#F5EADE" transform="translate(573,210)"/>
<path d="" fill="#FFFFFF" transform="translate(0,0)"/>
<path d="" fill="#FFFFFF" transform="translate(0,0)"/>
<path d="" fill="#FFFFFF" transform="translate(0,0)"/>
<path d="" fill="#FFFFFF" transform="translate(0,0)"/>
</svg>
